<svg width="1440" height="1024" viewBox="0 0 1440 1024" fill="none" xmlns="http://www.w3.org/2000/svg">
<rect width="1440" height="1024" fill="#73A920"/>
<rect x="47" y="145" width="49" height="49" fill="black" fill-opacity="0.6"/>
<rect x="146" y="145" width="49" height="49" fill="black" fill-opacity="0.6"/>
<rect x="96" y="194" width="50" height="72" fill="black" fill-opacity="0.6"/>
<rect x="146" y="218" width="24" height="72" fill="black" fill-opacity="0.6"/>
<rect x="72" y="218" width="24" height="72" fill="black" fill-opacity="0.6"/>
<rect x="1269" y="418" width="40.723" height="40.8897" fill="black" fill-opacity="0.6"/>
<rect x="1351.28" y="418" width="40.723" height="40.8897" fill="black" fill-opacity="0.6"/>
<rect x="1309.72" y="458.89" width="41.5541" height="60.0828" fill="black" fill-opacity="0.6"/>
<rect x="1351.28" y="478.917" width="19.9459" height="60.0828" fill="black" fill-opacity="0.6"/>
<rect x="1289.78" y="478.917" width="19.9459" height="60.0828" fill="black" fill-opacity="0.6"/>
<rect x="121" y="865.807" width="34.1013" height="34.131" fill="black" fill-opacity="0.6"/>
<rect x="189.899" y="865.807" width="34.1013" height="34.131" fill="black" fill-opacity="0.6"/>
<rect x="155.101" y="899.938" width="34.7973" height="50.1517" fill="black" fill-opacity="0.6"/>
<rect x="189.899" y="916.655" width="16.7027" height="50.1517" fill="black" fill-opacity="0.6"/>
<rect x="138.399" y="916.655" width="16.7027" height="50.1517" fill="black" fill-opacity="0.6"/>
</svg>
