<svg width="150" height="150" viewBox="0 0 150 150" fill="none" xmlns="http://www.w3.org/2000/svg">
<path d="M94.9715 0H57.4004V6.7705H43.074V13.8271H30.9298V19.5486H23.9089V25.8423H18.4061V31.85H11.9545V43.7699H5.97723V56.548H0V93.3566H5.97723V106.135H11.9545V118.627H18.4061V124.921H23.9089V130.642H30.9298V137.413H43.074V143.706H57.4004V150H94.9715V143.706H107.4V137.413H119.355V130.642H125.901V124.921H131.594V118.627H137.761V106.135H144.023V93.3566H150V56.548H144.023V43.7699H137.761V31.85H131.594V25.8423H125.901V19.5486H119.355V13.8271H107.4V6.7705H94.9715V0Z" fill="#1B2907"/>
<path d="M93.6401 5H58.5737V11.3191H45.2024V17.9053H33.8678V23.2454H27.315V29.1195H22.179V34.7266H16.1575V45.8519H10.5787V57.7781H5V92.1329H10.5787V104.059H16.1575V115.718H22.179V121.592H27.315V126.933H33.8678V133.252H45.2024V139.126H58.5737V145H93.6401V139.126H105.24V133.252H116.398V126.933H122.508V121.592H127.821V115.718H133.577V104.059H139.421V92.1329H145V57.7781H139.421V45.8519H133.577V34.7266H127.821V29.1195H122.508V23.2454H116.398V17.9053H105.24V11.3191H93.6401V5Z" fill="#1B2907" stroke="#F5F5F5"/>
<path d="M134.5 104.5C134.5 104.5 100.359 88.3569 77 88C52.3248 87.623 16 104.5 16 104.5" stroke="#EEFCE5" stroke-width="2"/>
<circle cx="75" cy="57" r="19" fill="#1B2907" stroke="#EEFCE5" stroke-width="2"/>
</svg>
